<svg version="1.1" id="Layer_2" xmlns="http://www.w3.org/2000/svg" xmlns:xlink="http://www.w3.org/1999/xlink" x="0px" y="0px"
	 width="100" height="25" viewBox="0 0 459.678 87.893" enable-background="new 0 0 459.678 87.893"
	 xml:space="preserve">
<g id="Layer_3">
</g>
<path fill="#FFFFFF" d="M0,0l6.525,10.746h87.509l16.505,30.705v-9.979h16.887l7.293,14.201l-0.025,18.81l-11.511-0.042l0.021,8.105
	c0,0-0.412,4.851-5.402,4.851c-5.891,0-6.447-4.586-6.447-4.586l-0.033-8.331H75.228v8.252c0,0-0.255,5.565-6.524,5.565
	c-4.861,0-6.141-5.565-6.141-5.565V64.48H33.775l6.525,10.363h11.514c0,0,3.071,13.049,15.545,13.049
	c12.475,0,17.848-12.281,17.848-12.281h14.201c0,0,3.838,12.281,17.655,12.281c14.073,0,16.504-12.281,16.504-12.281L147,75.228
	V42.219l-11.514-22.261h-23.797L100.559,0H0z"/>
<polygon fill="#FFFFFF" points="16.377,31.345 23.285,44.203 52.327,44.203 46.059,31.345 "/>
<g>
	<path fill="#FFFFFF" d="M185.602,47.55v17.94h-13.77V14.974h23.37c7.711,0,11.567,3.253,11.567,9.757v13.062
		c0,4.984-2.257,8.054-6.768,9.207l9.285,18.491h-14.793l-8.026-17.94H185.602z M191.032,24.81h-5.43v13.377h5.43
		c1.311,0,1.967-0.577,1.967-1.731V26.54C192.999,25.388,192.342,24.81,191.032,24.81z"/>
	<path fill="#FFFFFF" d="M236.264,14.974h11.645c7.712,0,11.567,3.253,11.567,9.757v31.003c0,6.505-3.855,9.757-11.567,9.757
		h-11.645c-7.712,0-11.567-3.252-11.567-9.757V24.73C224.697,18.227,228.552,14.974,236.264,14.974z M245.706,53.923V26.54
		c0-1.152-0.656-1.73-1.967-1.73h-3.305c-1.313,0-1.967,0.578-1.967,1.73v27.383c0,1.154,0.654,1.731,1.967,1.731h3.305
		C245.049,55.654,245.706,55.077,245.706,53.923z"/>
	<path fill="#FFFFFF" d="M299.2,14.974h13.77v40.76c0,6.505-3.855,9.757-11.566,9.757h-11.646c-7.711,0-11.566-3.252-11.566-9.757
		v-40.76h13.77v38.949c0,1.154,0.655,1.731,1.967,1.731h3.305c1.311,0,1.969-0.577,1.969-1.731V14.974z"/>
	<path fill="#FFFFFF" d="M362.372,14.974v9.836h-9.758V65.49h-13.77V24.81h-9.68v-9.836H362.372z"/>
	<path fill="#FFFFFF" d="M392.336,55.654h17.232v9.836h-31.002V14.974h30.293v9.836h-16.523v10.308h14.242v9.836h-14.242V55.654z"/>
	<path fill="#FFFFFF" d="M445.909,53.923v-7.16c0-1.153-0.658-1.73-1.969-1.73h-7.553c-3.883,0-6.623-0.853-8.223-2.558
		c-1.602-1.704-2.4-4.157-2.4-7.357V24.73c0-6.504,3.828-9.757,11.488-9.757h10.779c7.658,0,11.488,3.253,11.488,9.757v6.06h-13.77
		v-4.25c0-1.152-0.656-1.73-1.967-1.73H441.5c-1.311,0-1.967,0.578-1.967,1.73v7.476c0,1.154,0.656,1.731,1.967,1.731h7.396
		c3.883,0,6.65,0.813,8.303,2.439s2.479,4.012,2.479,7.16v10.387c0,6.505-3.83,9.757-11.488,9.757h-10.701
		c-7.711,0-11.568-3.252-11.568-9.757v-6.059h13.771v4.248c0,1.154,0.654,1.731,1.967,1.731h2.281
		C445.25,55.654,445.909,55.077,445.909,53.923z"/>
</g>
</svg>